<svg width="340" height="340" viewBox="0 0 340 340" fill="none" xmlns="http://www.w3.org/2000/svg">
<path fill-rule="evenodd" clip-rule="evenodd" d="M140.36 155.706C144.856 160.109 149.991 164.379 154.194 169.238C152.944 173.363 44.4708 278.848 42.3936 282.397C43.6313 285.225 55.9394 296.799 58.9313 298.935C62.6148 297.329 168.101 188.563 172.091 187.015C179.072 193.063 219.67 234.629 227.396 242.382C233.574 248.581 280.215 295.908 282.803 297.149C285.474 295.489 287.475 292.859 289.741 290.558C291.645 288.626 294.903 286.24 295.8 283.62C292.901 279.627 285.635 273.239 281.759 269.376C277.017 264.647 272.785 260.297 268.043 255.562C258.877 246.408 191.963 179.726 186.317 172.296C187.032 170.645 269.902 88.3885 285.034 72.9881C287.537 70.4399 297.599 60.8486 298.788 58.5253C297.248 56.0978 292.919 52.3348 290.635 50.0826C288.147 47.6301 285.435 43.5395 281.855 42.383C280.452 44.7815 257.525 67.0263 253.601 70.9146C244.724 79.7126 173.74 151.814 169.032 155.671C166.539 154.747 96.0352 83.4464 84.3403 71.6516C80.2406 67.5161 58.4668 45.1859 55.8732 43.9405C53.601 45.4281 44.2924 54.7666 42.9548 57.3015L140.36 155.706Z" fill="#3b8640"/>
<path fill-rule="evenodd" clip-rule="evenodd" d="M118.618 34.6701C119.709 32.8227 132.806 19.8037 134.778 18.8384C140.622 22.4796 164.68 49.5142 169.032 51.8991C171.83 50.5396 182.715 38.7108 185.835 35.5696C188.857 32.5275 200.764 21.091 202.364 18.5776C205.413 19.5115 218.642 33.2267 219.347 35.2813L194.251 60.4998C190.858 63.9032 171.577 84.256 169.032 85.3932C165.216 82.6119 148.259 65.3474 143.602 60.7122C139.496 56.6246 121.713 39.8314 118.618 34.6701ZM75.4731 28.5533C76.2048 30.2019 164.628 119.747 169.643 121.532C173.165 118.936 177.992 113.365 181.357 109.997C185.376 105.976 188.921 102.365 192.944 98.3408L251.626 39.582C254.201 37.0051 262.136 30.0602 263.335 27.1617C245.569 17.835 242.354 14.7191 222.14 7.79804C189.53 -3.36669 148.872 -1.96184 116.438 8.31659C105.189 11.8811 83.5545 21.2962 75.4731 28.5533Z" fill="#3b8640"/>
<path fill-rule="evenodd" clip-rule="evenodd" d="M17.7272 135.596C19.5641 132.42 30.0715 122.878 33.853 119.119C36.2775 120.123 65.4751 150.284 71.7707 156.397C75.5604 160.078 81.2354 165.532 83.9003 169.238C82.3571 173.973 63.8076 191.32 59.4592 195.455C55.3622 199.351 36.4506 219.384 33.853 220.638L17.3803 204.301L34.1368 187.26C39.5748 181.931 45.7176 176.3 50.7524 170.461C49.6737 167.837 37.0157 155.807 34.5072 153.288C31.5119 150.28 28.9403 147.754 25.9375 144.734C24.3622 143.149 23.2416 142.006 21.6746 140.432L17.7272 135.596ZM27.7358 263.328C37.2455 255.328 85.7081 205.382 97.4968 193.736C101.018 190.258 119.95 172.517 120.915 169.85C119.132 167.241 101.437 150.075 97.7013 146.37C90.1411 138.872 30.2031 78.0791 27.7358 76.9014C21.8639 83.2748 11.4736 106.248 8.1019 117.185C3.11632 133.357 -0.569094 151.226 0.07267 169.85C0.802119 191.025 1.92917 203.824 8.09812 222.494C11.0926 231.556 22.8802 259.2 27.7358 263.328Z" fill="#3b8640"/>
<path fill-rule="evenodd" clip-rule="evenodd" d="M255.941 172.296C256.79 170.316 287.524 140.1 293.239 134.408C296.795 130.868 302.335 124.567 306.047 121.913C308.229 123.004 321.619 136.527 323.065 138.654C321.443 142.293 292.466 168.56 289.931 172.296C291.549 177.171 319.627 200.798 322.574 206.55C321.512 208.574 307.908 222.204 306.047 223.065C301.793 219.543 297.261 214.337 293.128 210.291C287.335 204.62 258.893 176.583 255.941 172.296ZM219.668 172.296C222.702 177.552 259.888 213.644 265.022 218.825C271.069 224.927 306.446 261.785 311.552 263.978C317.752 257.58 327.978 233.599 331.221 223.764C345.003 181.979 342.255 137.597 324.224 97.8604C320.898 90.5311 317.048 84.5141 313.739 78.4778C309.644 80.4511 251.45 139.946 242.994 148.393C238.965 152.418 235.369 155.955 231.332 159.971C228.746 162.544 220.737 169.583 219.668 172.296Z" fill="#3b8640"/>
<path fill-rule="evenodd" clip-rule="evenodd" d="M120.738 307.475C122.164 304.964 130.644 297.176 133.367 294.443C138.775 289.018 169.184 257.485 171.397 257.579C174.454 257.709 194.038 278.848 197.065 281.891C205.292 290.163 214.294 298.013 222.137 306.864C221.325 309.446 216.095 313.676 214.008 315.752C211.146 318.6 208.808 320.898 205.846 323.946C203.102 322.867 191.572 310.507 188.572 307.509C185.629 304.568 174.101 292.057 171.446 291.009L137.837 324.201C135.26 323.294 121.616 309.012 120.738 307.475ZM173.926 339.838C191.866 339.828 208.678 336.321 223.996 331.21C231.228 328.797 259.751 316.67 263.004 312.369C259.686 308.2 255.298 304.665 251.559 300.797C239.112 287.922 174.295 221.977 170.867 220.756C166.406 224.502 163.886 227.551 159.287 232.28C149.085 242.77 80.1106 310.319 78.5761 313.592C83.974 318.777 106.661 328.359 115.845 331.339C139.104 338.887 151.104 339.85 173.926 339.838Z" fill="#3b8640"/>
</svg>
